<svg width="20" height="20" viewBox="0 0 20 20" fill="none" xmlns="http://www.w3.org/2000/svg">
<path d="M8.5 3C9.5239 2.99994 10.5275 3.28568 11.3978 3.82507C12.2681 4.36447 12.9705 5.13608 13.426 6.05306C13.8816 6.97004 14.0721 7.99597 13.9762 9.01536C13.8802 10.0347 13.5016 11.0071 12.883 11.823L17.03 15.97C17.163 16.104 17.2405 16.2832 17.2471 16.4719C17.2538 16.6605 17.189 16.8447 17.0658 16.9878C16.9426 17.1308 16.77 17.2221 16.5825 17.2434C16.3949 17.2648 16.2062 17.2147 16.054 17.103L15.97 17.03L11.823 12.883C11.1276 13.4102 10.3167 13.7643 9.45733 13.9161C8.59798 14.0679 7.71484 14.0131 6.88087 13.7561C6.04691 13.4992 5.28606 13.0474 4.66119 12.4383C4.03632 11.8291 3.56537 11.08 3.28725 10.2529C3.00914 9.4257 2.93183 8.54424 3.06173 7.6813C3.19163 6.81837 3.525 5.99872 4.0343 5.2901C4.5436 4.58148 5.21421 4.00421 5.99072 3.606C6.76723 3.20779 7.62735 3.00007 8.5 3ZM8.5 4.5C7.43914 4.5 6.42172 4.92143 5.67158 5.67157C4.92143 6.42172 4.5 7.43913 4.5 8.5C4.5 9.56087 4.92143 10.5783 5.67158 11.3284C6.42172 12.0786 7.43914 12.5 8.5 12.5C9.56087 12.5 10.5783 12.0786 11.3284 11.3284C12.0786 10.5783 12.5 9.56087 12.5 8.5C12.5 7.43913 12.0786 6.42172 11.3284 5.67157C10.5783 4.92143 9.56087 4.5 8.5 4.5Z" fill="#863503"/>
</svg>
